<svg width="60" height="60" xmlns:xlink="http://www.w3.org/1999/xlink" xmlns="http://www.w3.org/2000/svg"><defs><linearGradient id="prefix__a"><stop offset="0%" stop-color="#daa520"/><stop offset="79%" stop-color="#dab520"/><stop offset="94%" stop-color="#fafafa"/><stop offset="100%" stop-color="#daa520"/></linearGradient><linearGradient xlink:href="#prefix__a" id="prefix__t" x1="1802.355" y1="191.673" x2="1802.355" y2="395.714" gradientTransform="scale(.76344 1.30985)" gradientUnits="userSpaceOnUse"/><linearGradient xlink:href="#prefix__a" id="prefix__r" x1="317.507" y1="1923.265" x2="317.507" y2="1934.763" gradientUnits="userSpaceOnUse" gradientTransform="scale(5.06596 .1974)"/><linearGradient id="prefix__b"><stop offset="0%" stop-color="#daa520"/><stop offset="25%" stop-color="#dab520"/><stop offset="38%" stop-color="#fafafa"/><stop offset="100%" stop-color="#daa520"/></linearGradient><linearGradient xlink:href="#prefix__b" id="prefix__u" x1="1342.401" y1="137.08" x2="1342.401" y2="505.307" gradientTransform="scale(.97461 1.02605)" gradientUnits="userSpaceOnUse"/><linearGradient xlink:href="#prefix__b" id="prefix__v" x1="1779.27" y1="59.692" x2="1779.27" y2="387.481" gradientTransform="scale(.85072 1.17547)" gradientUnits="userSpaceOnUse"/><linearGradient xlink:href="#prefix__b" id="prefix__w" x1="1032.46" y1="383.97" x2="1032.46" y2="705.96" gradientTransform="scale(1.35362 .73876)" gradientUnits="userSpaceOnUse"/><linearGradient xlink:href="#prefix__a" id="prefix__c" gradientUnits="userSpaceOnUse" gradientTransform="scale(.75933 1.31695)" x1="2068.189" y1="53.594" x2="2068.189" y2="345.745"/><linearGradient xlink:href="#prefix__a" id="prefix__d" gradientUnits="userSpaceOnUse" gradientTransform="scale(.79477 1.25823)" x1="2266.481" y1="374.369" x2="2266.481" y2="414.393"/><linearGradient xlink:href="#prefix__a" id="prefix__e" gradientUnits="userSpaceOnUse" gradientTransform="scale(.78345 1.2764)" x1="1960.616" y1="55.292" x2="1960.616" y2="99.811"/><linearGradient xlink:href="#prefix__a" id="prefix__f" gradientUnits="userSpaceOnUse" gradientTransform="scale(.76796 1.30215)" x1="2000.17" y1="97.613" x2="2000.17" y2="308.878"/><linearGradient xlink:href="#prefix__a" id="prefix__g" gradientUnits="userSpaceOnUse" x1="93.71" y1="6620.403" x2="93.71" y2="6629.744" gradientTransform="scale(16.4777 .06069)"/><linearGradient xlink:href="#prefix__a" id="prefix__h" gradientUnits="userSpaceOnUse" gradientTransform="scale(.765 1.3072)" x1="1978.982" y1="307.468" x2="1978.982" y2="347.282"/><linearGradient xlink:href="#prefix__a" id="prefix__i" gradientUnits="userSpaceOnUse" x1="126.159" y1="5443.372" x2="126.159" y2="5466.525" gradientTransform="scale(12.00194 .08332)"/><linearGradient xlink:href="#prefix__a" id="prefix__j" gradientUnits="userSpaceOnUse" gradientTransform="scale(.76092 1.3142)" x1="1719.712" y1="107.345" x2="1719.712" y2="394.407"/><linearGradient xlink:href="#prefix__a" id="prefix__k" gradientUnits="userSpaceOnUse" x1="120.01" y1="5648.175" x2="120.01" y2="5654.358" gradientTransform="scale(10.90588 .0917)"/><linearGradient xlink:href="#prefix__a" id="prefix__l" gradientUnits="userSpaceOnUse" x1="100.994" y1="7188.039" x2="100.994" y2="7219.453" gradientTransform="scale(13.84275 .07224)"/><linearGradient xlink:href="#prefix__a" id="prefix__m" gradientUnits="userSpaceOnUse" gradientTransform="scale(.74062 1.35023)" x1="1887.33" y1="210.41" x2="1887.33" y2="384.886"/><linearGradient xlink:href="#prefix__a" id="prefix__n" gradientUnits="userSpaceOnUse" gradientTransform="scale(.76851 1.30121)" x1="1935.362" y1="264.129" x2="1935.362" y2="360.919"/><linearGradient xlink:href="#prefix__a" id="prefix__o" gradientUnits="userSpaceOnUse" gradientTransform="scale(.76698 1.30382)" x1="1990.293" y1="217.895" x2="1990.293" y2="263.821"/><linearGradient xlink:href="#prefix__a" id="prefix__p" gradientUnits="userSpaceOnUse" x1="126.471" y1="5518.952" x2="126.471" y2="5545.645" gradientTransform="scale(11.76233 .08502)"/><linearGradient xlink:href="#prefix__a" id="prefix__q" gradientUnits="userSpaceOnUse" gradientTransform="scale(.76658 1.30449)" x1="1991.321" y1="108.142" x2="1991.321" y2="291.356"/><linearGradient xlink:href="#prefix__a" id="prefix__s" gradientUnits="userSpaceOnUse" gradientTransform="scale(.76975 1.29913)" x1="1989.332" y1="193.254" x2="1989.332" y2="293.87"/></defs><g stroke-width=".567"><path d="M1570.687 70.722l221.347 384.465" fill="url(#prefix__c)" stroke="#000" transform="matrix(.11427 0 0 .13293 -149.094 -9.106)"/><path d="M1832.899 521.25l-31.33-50.058" fill="url(#prefix__d)" stroke="#000" transform="matrix(.11427 0 0 .13293 -149.094 -9.106)"/><path d="M1570.687 70.722l-34.394 56.53" fill="url(#prefix__e)" stroke="#000" transform="matrix(.11427 0 0 .13293 -149.094 -9.106)"/><path d="M1536.293 127.251l161.754 274.812" fill="url(#prefix__f)" stroke="#000" transform="matrix(.11427 0 0 .13293 -149.094 -9.106)"/><path d="M1698.047 402.063h-153.922" fill="url(#prefix__g)" stroke="#000" transform="matrix(.11427 0 0 .13293 -149.094 -9.106)"/><path d="M1544.125 402.063l-29.967 51.761" fill="url(#prefix__h)" stroke="#000" transform="matrix(.11427 0 0 .13293 -149.094 -9.106)"/><path d="M1514.158 453.824l277.876 1.363" fill="url(#prefix__i)" stroke="#000" transform="matrix(.11427 0 0 .13293 -149.094 -9.106)"/><path d="M1526.758 141.213l-217.943 376.972" fill="url(#prefix__j)" stroke="#000" transform="matrix(.11427 0 0 .13293 -149.094 -9.106)"/><path d="M1308.815 518.185h67.426" fill="url(#prefix__k)" stroke="#000" transform="matrix(.11427 0 0 .13293 -149.094 -9.106)"/><path d="M1398.035 519.547l434.863 1.703" fill="url(#prefix__l)" stroke="#000" transform="matrix(.11427 0 0 .13293 -149.094 -9.106)"/><path d="M1398.035 519.547l128.723-235.31" fill="url(#prefix__m)" stroke="#000" transform="matrix(.11427 0 0 .13293 -149.094 -9.106)"/><path d="M1487.596 469.489l73.896-125.657" fill="url(#prefix__n)" stroke="#000" transform="matrix(.11427 0 0 .13293 -149.094 -9.106)"/><path d="M1526.758 284.238l34.734 59.594" fill="url(#prefix__o)" stroke="#000" transform="matrix(.11427 0 0 .13293 -149.094 -9.106)"/><path d="M1487.596 469.489l313.973 1.702" fill="url(#prefix__p)" stroke="#000" transform="matrix(.11427 0 0 .13293 -149.094 -9.106)"/><path d="M1526.758 141.213l139.96 238.715" fill="url(#prefix__q)" stroke="#000" transform="matrix(.11427 0 0 .13293 -149.094 -9.106)"/><path d="M1666.718 379.928l-58.232 1.703" fill="url(#prefix__r)" stroke="#000" transform="matrix(.11427 0 0 .13293 -149.094 -9.106)"/><path d="M1608.486 381.631l-76.96-130.425" fill="url(#prefix__s)" stroke="#000" transform="matrix(.11427 0 0 .13293 -149.094 -9.106)"/><path d="M1531.525 251.206l-155.284 266.98" fill="url(#prefix__t)" stroke="#000" transform="matrix(.11427 0 0 .13293 -149.094 -9.106)"/><path d="M1376.242 518.185l155.283-266.979 76.961 130.425 58.232-1.703-139.96-238.715-217.943 376.972z" fill="url(#prefix__u)" stroke="#1b1918" transform="matrix(.11427 0 0 .13293 -149.094 -9.106)"/><path d="M1536.293 127.251l161.754 274.812h-153.922l-29.967 51.761 277.876 1.363-221.348-384.465z" fill="url(#prefix__v)" stroke="#1b1918" transform="matrix(.11427 0 0 .13293 -149.094 -9.106)"/><path d="M1561.492 343.832l-34.734-59.594-128.723 235.31 434.863 1.702-31.329-50.058-313.973-1.703z" fill="url(#prefix__w)" stroke="#1b1918" transform="matrix(.11427 0 0 .13293 -149.094 -9.106)"/></g></svg>